<?xml version="1.0" standalone="no"?>
<!DOCTYPE svg PUBLIC "-//W3C//DTD SVG 20010904//EN"
 "http://www.w3.org/TR/2001/REC-SVG-20010904/DTD/svg10.dtd">
<svg version="1.0" xmlns="http://www.w3.org/2000/svg"
 width="324.000000pt" height="324.000000pt" viewBox="0 0 324.000000 324.000000"
 preserveAspectRatio="xMidYMid meet">
<metadata>
Created by potrace 1.14, written by Peter Selinger 2001-2017
</metadata>
<g transform="translate(0.000000,324.000000) scale(0.100000,-0.100000)"
fill="#000000" stroke="none">
<path d="M1947 3164 c-1 -1 -24 -4 -52 -8 -159 -18 -305 -105 -379 -223 -32
-53 -79 -187 -95 -273 -20 -114 -23 -198 -27 -1015 -5 -1146 -7 -1175 -63
-1175 -10 0 -28 -11 -41 -25 -31 -33 -47 -32 -135 9 l-73 34 -15 68 c-13 56
-15 114 -11 299 3 127 5 248 3 270 -1 35 -2 314 0 585 0 52 0 102 -1 110 0 8
2 40 7 70 4 30 8 64 10 75 1 11 -3 38 -10 61 -8 26 -12 119 -13 260 0 126 -5
230 -11 246 -20 53 -97 77 -180 55 -66 -17 -78 -45 -81 -177 -6 -321 -9 -387
-17 -410 -13 -34 -8 -327 7 -422 11 -74 9 -117 -10 -233 -13 -80 -6 -195 14
-233 16 -31 16 -37 3 -65 -12 -24 -14 -56 -10 -132 7 -139 7 -175 -1 -210 -31
-137 37 -365 140 -470 77 -78 167 -136 234 -152 41 -10 115 0 192 26 136 46
152 58 250 189 72 96 83 119 94 187 3 22 8 337 10 700 7 1089 10 1359 18 1390
27 117 64 195 116 243 89 83 269 81 336 -3 19 -24 44 -40 80 -52 50 -15 53
-15 85 5 104 64 125 157 52 228 -84 81 -204 143 -313 160 -47 7 -109 12 -113
8z m-989 -792 c2 -6 -6 -10 -17 -9 -22 1 -26 8 -14 21 9 9 26 3 31 -12z m672
-120 c0 -5 -6 -16 -13 -26 -12 -16 -16 -17 -35 -5 -22 14 -22 14 10 26 18 6
34 12 36 12 1 1 2 -3 2 -7z m-50 -711 c0 -4 -6 -8 -12 -8 -7 0 -21 -4 -30 -8
-26 -11 -22 10 5 22 22 11 37 8 37 -6z m-614 -767 c13 -3 24 -12 24 -19 0 -11
-8 -11 -32 -4 -18 5 -34 9 -34 9 -1 0 -5 7 -8 16 -5 12 -2 15 10 10 9 -3 27
-9 40 -12z m604 -108 c0 -12 -10 -14 -38 -7 -2 1 0 6 3 11 9 15 35 12 35 -4z
m-392 -446 c3 0 2 -4 -4 -10 -14 -14 -68 3 -72 24 -3 16 -1 16 33 1 21 -8 40
-15 43 -15z"/>
<path d="M2341 2673 c-6 -16 -26 -57 -46 -93 -53 -98 -45 -159 25 -195 59 -30
127 -8 155 51 22 47 19 64 -25 145 -23 41 -46 84 -52 97 -15 30 -44 28 -57 -5z"/>
</g>
</svg>
